# xmcd
#
# Track frame offsets: 
#        150
#        12042
#        30625
#        51220
#        68557
#        88050
#        106912
#        126487
#        143327
#        164125
#
# Disc length: 2426 seconds
#
# Revision: 0
# Processed by: cddbd v1.5.2PL0 Copyright (c) Steve Scherf et al.
# Submitted via: ExactAudioCopyFreeDBPlugin 1.0
#
DISCID=8009780a
DTITLE=中村雅俊 - restration
DYEAR=1994
DGENRE=JPop
TTITLE0=心の色
TTITLE1=男達のGood-bye
TTITLE2=愛の言葉
TTITLE3=ラスト・ソング
TTITLE4=君の国
TTITLE5=君の中のモナリザ
TTITLE6=さらば涙…嵐の彼方に
TTITLE7=ビロードの雨
TTITLE8=抱擁
TTITLE9=天使達の夢
EXTD=
EXTT0=
EXTT1=
EXTT2=
EXTT3=
EXTT4=
EXTT5=
EXTT6=
EXTT7=
EXTT8=
EXTT9=
PLAYORDER=
